{
    "asset" : {
        "generator" : "Khronos glTF Blender I/O v3.4.50",
        "version" : "2.0"
    },
    "scene" : 0,
    "scenes" : [
        {
            "name" : "Scene",
            "nodes" : [
                0
            ]
        }
    ],
    "nodes" : [
        {
            "mesh" : 0,
            "name" : "rock"
        }
    ],
    "meshes" : [
        {
            "name" : "rock",
            "primitives" : [
                {
                    "attributes" : {
                        "POSITION" : 0,
                        "NORMAL" : 1
                    },
                    "indices" : 2
                }
            ]
        }
    ],
    "accessors" : [
        {
            "bufferView" : 0,
            "componentType" : 5126,
            "count" : 52750,
            "max" : [
                1.1950914859771729,
                1.0780951976776123,
                1.6150082349777222
            ],
            "min" : [
                -1.3059988021850586,
                -1.7315841913223267,
                -1.6186528205871582
            ],
            "type" : "VEC3"
        },
        {
            "bufferView" : 1,
            "componentType" : 5126,
            "count" : 52750,
            "type" : "VEC3"
        },
        {
            "bufferView" : 2,
            "componentType" : 5123,
            "count" : 294912,
            "type" : "SCALAR"
        }
    ],
    "bufferViews" : [
        {
            "buffer" : 0,
            "byteLength" : 633000,
            "byteOffset" : 0,
            "target" : 34962
        },
        {
            "buffer" : 0,
            "byteLength" : 633000,
            "byteOffset" : 633000,
            "target" : 34962
        },
        {
            "buffer" : 0,
            "byteLength" : 589824,
            "byteOffset" : 1266000,
            "target" : 34963
        }
    ],
    "buffers" : [
        {
            "byteLength" : 1855824,
            "uri" : "data:application/octet-stream;base64,"
        }
    ]
}
