{
    "asset" : {
        "generator" : "Khronos glTF Blender I/O v3.4.50",
        "version" : "2.0"
    },
    "scene" : 0,
    "scenes" : [
        {
            "name" : "Scene",
            "nodes" : [
                0
            ]
        }
    ],
    "nodes" : [
        {
            "mesh" : 0,
            "name" : "rock",
            "rotation" : [
                -0.4916110038757324,
                0,
                0,
                0.8708149194717407
            ]
        }
    ],
    "meshes" : [
        {
            "name" : "rock.002",
            "primitives" : [
                {
                    "attributes" : {
                        "POSITION" : 0,
                        "NORMAL" : 1
                    },
                    "indices" : 2
                }
            ]
        }
    ],
    "accessors" : [
        {
            "bufferView" : 0,
            "componentType" : 5126,
            "count" : 22813,
            "max" : [
                1.2718780040740967,
                1.3652969598770142,
                1.2062835693359375
            ],
            "min" : [
                -1.285274863243103,
                -1.5214879512786865,
                -1.0416260957717896
            ],
            "type" : "VEC3"
        },
        {
            "bufferView" : 1,
            "componentType" : 5126,
            "count" : 22813,
            "type" : "VEC3"
        },
        {
            "bufferView" : 2,
            "componentType" : 5123,
            "count" : 135168,
            "type" : "SCALAR"
        }
    ],
    "bufferViews" : [
        {
            "buffer" : 0,
            "byteLength" : 273756,
            "byteOffset" : 0,
            "target" : 34962
        },
        {
            "buffer" : 0,
            "byteLength" : 273756,
            "byteOffset" : 273756,
            "target" : 34962
        },
        {
            "buffer" : 0,
            "byteLength" : 270336,
            "byteOffset" : 547512,
            "target" : 34963
        }
    ],
    "buffers" : [
        {
            "byteLength" : 817848,
            "uri" : "data:application/octet-stream;base64,"
        }
    ]
}
