{
    "asset" : {
        "generator" : "Khronos glTF Blender I/O v3.4.50",
        "version" : "2.0"
    },
    "scene" : 0,
    "scenes" : [
        {
            "name" : "Scene",
            "nodes" : [
                0
            ]
        }
    ],
    "nodes" : [
        {
            "mesh" : 0,
            "name" : "rock"
        }
    ],
    "meshes" : [
        {
            "name" : "rock",
            "primitives" : [
                {
                    "attributes" : {
                        "POSITION" : 0,
                        "NORMAL" : 1
                    },
                    "indices" : 2
                }
            ]
        }
    ],
    "accessors" : [
        {
            "bufferView" : 0,
            "componentType" : 5126,
            "count" : 39918,
            "max" : [
                1.485410451889038,
                1.0133806467056274,
                1.5945125818252563
            ],
            "min" : [
                -1.4695261716842651,
                -1.816585659980774,
                -1.7291826009750366
            ],
            "type" : "VEC3"
        },
        {
            "bufferView" : 1,
            "componentType" : 5126,
            "count" : 39918,
            "type" : "VEC3"
        },
        {
            "bufferView" : 2,
            "componentType" : 5123,
            "count" : 221184,
            "type" : "SCALAR"
        }
    ],
    "bufferViews" : [
        {
            "buffer" : 0,
            "byteLength" : 479016,
            "byteOffset" : 0,
            "target" : 34962
        },
        {
            "buffer" : 0,
            "byteLength" : 479016,
            "byteOffset" : 479016,
            "target" : 34962
        },
        {
            "buffer" : 0,
            "byteLength" : 442368,
            "byteOffset" : 958032,
            "target" : 34963
        }
    ],
    "buffers" : [
        {
            "byteLength" : 1400400,
            "uri" : "data:application/octet-stream;base64,"
        }
    ]
}
